<svg width="20" height="14" viewBox="0 0 20 14" fill="none" xmlns="http://www.w3.org/2000/svg">
<path d="M2.30779 14L17.8633 14C18.2759 14 18.6716 13.8361 18.9633 13.5444C19.255 13.2527 19.4189 12.857 19.4189 12.4444V1.55556C19.4189 1.143 19.255 0.747335 18.9633 0.455612C18.6716 0.163888 18.2759 -2.38419e-07 17.8633 -2.38419e-07L2.30779 -2.38419e-07C1.89523 -2.38419e-07 1.49956 0.163888 1.20784 0.455612C0.916118 0.747335 0.752231 1.143 0.752231 1.55556V12.4444C0.752231 12.857 0.916118 13.2527 1.20784 13.5444C1.49956 13.8361 1.89523 14 2.30779 14ZM17.8633 1.55556V12.4444L2.30779 12.4444V1.55556L17.8633 1.55556Z" fill="white"/>
</svg>
