<svg width="30" height="20" viewBox="0 0 30 20" fill="none" xmlns="http://www.w3.org/2000/svg">
<path d="M17.275 18.3333H12.725C12.4399 18.3334 12.1634 18.2684 11.9412 18.1493C11.7191 18.0302 11.5647 17.864 11.5037 17.6783L10.995 16.1083C10.3163 15.9101 9.67277 15.6622 9.07623 15.3692L6.77998 15.8567C6.50818 15.9144 6.21491 15.9085 5.94888 15.8398C5.68284 15.7712 5.46004 15.6439 5.31748 15.4792L3.03748 12.8533C2.89641 12.6884 2.84346 12.4965 2.88728 12.309C2.93111 12.1214 3.06911 11.9493 3.27873 11.8208L5.05998 10.7375C4.97897 10.2468 4.97897 9.75157 5.05998 9.26083L3.27873 8.17999C3.06882 8.05147 2.93062 7.87922 2.88679 7.69148C2.84296 7.50373 2.89609 7.31163 3.03748 7.14666L5.31248 4.51916C5.45504 4.35442 5.67784 4.22715 5.94388 4.15848C6.20991 4.08981 6.50318 4.08387 6.77498 4.14166L9.07123 4.62916C9.37623 4.47916 9.69373 4.33916 10.0212 4.21249C10.3375 4.09416 10.6625 3.98666 10.995 3.89082L11.505 2.32249C11.5657 2.13682 11.7198 1.97056 11.9417 1.85128C12.1636 1.732 12.4399 1.66686 12.725 1.66666H17.275C17.56 1.66686 17.8364 1.732 18.0583 1.85128C18.2802 1.97056 18.4343 2.13682 18.495 2.32249L19.01 3.89166C19.6883 4.08991 20.3314 4.33782 20.9275 4.63082L23.225 4.14332C23.4966 4.08575 23.7896 4.0918 24.0554 4.16046C24.3211 4.22912 24.5437 4.35627 24.6862 4.52082L26.9612 7.14832C27.2512 7.48749 27.1512 7.91666 26.72 8.18083L24.9387 9.26416C25.0197 9.7549 25.0197 10.2501 24.9387 10.7408L26.72 11.8242C27.1512 12.0892 27.2512 12.5175 26.9612 12.8567L24.6862 15.4842C24.5437 15.6489 24.3209 15.7762 24.0548 15.8448C23.7888 15.9135 23.4955 15.9194 23.2237 15.8617L20.9275 15.3742C20.3314 15.667 19.6883 15.9146 19.01 16.1125L18.495 17.6783C18.434 17.8638 18.2798 18.0299 18.058 18.149C17.8361 18.2681 17.5598 18.3332 17.275 18.3333ZM9.52498 13.5242L10.55 14.0242C10.7812 14.1375 11.0212 14.2417 11.2712 14.3367C11.5062 14.4275 11.7462 14.5092 11.995 14.5833L13.1612 14.9242L13.7325 16.6667H16.27L16.8412 14.9233L18.0075 14.5825C18.5162 14.4325 19 14.2467 19.4487 14.0275L20.4737 13.5275L23.0262 14.0692L24.295 12.6042L22.3162 11.4017L22.4562 10.5583C22.5187 10.1892 22.5187 9.81666 22.4562 9.44833L22.3162 8.60499L24.2962 7.39999L23.0262 5.93416L20.475 6.47582L19.4487 5.97582C18.9997 5.75557 18.5165 5.5681 18.0075 5.41666L16.8412 5.07582L16.27 3.33332H13.7325L13.1575 5.07666L11.995 5.41666C11.4852 5.5655 11.0018 5.75164 10.5537 5.97166L9.52748 6.47166L6.97748 5.92999L5.70623 7.39999L7.68498 8.60083L7.54498 9.44499C7.48248 9.81416 7.48248 10.1867 7.54498 10.555L7.68498 11.3983L5.70623 12.6008L6.97498 14.0658L9.52498 13.5242ZM14.995 13.3333C13.6689 13.3333 12.3971 12.9821 11.4594 12.357C10.5218 11.7319 9.99498 10.884 9.99498 9.99999C9.99498 9.11594 10.5218 8.26809 11.4594 7.64297C12.3971 7.01785 13.6689 6.66666 14.995 6.66666C16.3211 6.66666 17.5928 7.01785 18.5305 7.64297C19.4682 8.26809 19.995 9.11594 19.995 9.99999C19.995 10.884 19.4682 11.7319 18.5305 12.357C17.5928 12.9821 16.3211 13.3333 14.995 13.3333ZM14.995 8.33333C14.5054 8.33366 14.0268 8.4298 13.6185 8.60983C13.2101 8.78987 12.8901 9.04586 12.698 9.34606C12.5059 9.64626 12.4503 9.97745 12.5379 10.2985C12.6256 10.6196 12.8528 10.9165 13.1913 11.1523C13.5297 11.3881 13.9646 11.5525 14.4419 11.625C14.9192 11.6975 15.418 11.675 15.8763 11.5603C16.3346 11.4456 16.7323 11.2437 17.0201 10.9796C17.3078 10.7156 17.4729 10.401 17.495 10.075V10.4083V9.99999C17.495 9.55796 17.2316 9.13404 16.7627 8.82148C16.2939 8.50892 15.658 8.33333 14.995 8.33333Z" fill="#ECECEC"/>
</svg>
