<svg width="22" height="20" viewBox="0 0 22 20" fill="none" xmlns="http://www.w3.org/2000/svg">
<path id="Vector" d="M9.42857 10.0001C8.82357 10.0001 8.25 11.9412 8.25 11.2537V8.12867C8.25 7.78335 8.00387 7.50367 7.7 7.50367C7.39612 7.50367 7.15 7.78335 7.15 8.12867V11.1189C7.15 11.7982 7.31225 12.4654 7.62059 13.0482L10.2933 18.1103C10.6057 18.7025 10.4373 19.4701 9.91616 19.8255C9.41944 20.1642 8.79141 19.9935 8.46209 19.4658C8.45522 19.4568 8.44078 19.4576 8.43494 19.447L3.14286 12.5927C2.77986 11.974 0.785714 8.88968 0.785714 8.14827L3.85 7.36265L0.752125 6.18921C0.533077 6.1064 0.342537 5.9473 0.207534 5.7345C0.0725311 5.5217 -8.01921e-05 5.266 6.64616e-08 5.00367L3.85 3.70382C3.85 3.28117 0.292875 0.00366592 1.1 0.00366592C1.19247 0.00366592 1.28597 0.0169468 1.37706 0.0438995L7.53672 1.86499C9.25237 2.42241 10.45 4.22671 10.45 6.25367V13.3335C10.45 14.021 10.0336 10.0001 9.42857 10.0001ZM21.2479 6.18609L18.15 7.35953L21.2143 8.14827C21.2143 8.88968 19.2201 11.974 18.8571 12.5927L13.5651 19.4435C13.5589 19.4541 13.5448 19.4529 13.5379 19.4623C13.2086 19.99 12.5806 20.1607 12.0838 19.822C11.5627 19.467 11.3943 18.699 11.7068 18.1068L14.3794 13.0447C14.6877 12.4619 14.85 11.7947 14.85 11.1154V8.12515C14.85 7.77984 14.6039 7.50015 14.3 7.50015C13.9961 7.50015 13.75 7.77984 13.75 8.12515V11.2502C13.75 11.9377 13.1764 10.0001 12.5714 10.0001C11.9664 10.0001 11.55 14.021 11.55 13.3335V6.25015C11.55 4.2232 12.7476 2.4189 14.4633 1.86187L20.6229 0.0407753C20.7144 0.0138226 20.8079 0.000541687 20.9 0.000541687C21.7071 0.000541687 18.15 3.28117 18.15 3.70382L22 5.00054C22 5.53843 21.6972 6.01578 21.2479 6.18609Z" fill="white"/>
</svg>
