<svg width="28" height="20" viewBox="0 0 28 20" fill="none" xmlns="http://www.w3.org/2000/svg">
<path d="M15.0967 10L20.7667 5.95C20.8941 5.84372 20.9607 5.70702 20.9531 5.5672C20.9455 5.42738 20.8644 5.29474 20.7259 5.1958C20.5874 5.09686 20.4017 5.0389 20.2059 5.0335C20.0102 5.0281 19.8188 5.07565 19.67 5.16667L14 9.21667L8.32999 5.16111C8.1812 5.0701 7.9898 5.02254 7.79406 5.02794C7.59831 5.03334 7.41262 5.0913 7.2741 5.19025C7.13559 5.28919 7.05444 5.42182 7.04688 5.56164C7.03932 5.70146 7.1059 5.83817 7.23332 5.94445L12.9033 10L7.22554 14.05C7.14412 14.0998 7.078 14.1611 7.03131 14.23C6.98463 14.2989 6.95839 14.374 6.95425 14.4505C6.95012 14.527 6.96817 14.6033 7.00727 14.6746C7.04637 14.7459 7.10568 14.8107 7.18148 14.8648C7.25728 14.919 7.34793 14.9613 7.44774 14.9892C7.54754 15.0172 7.65436 15.0301 7.76147 15.0271C7.86859 15.0242 7.97369 15.0054 8.07019 14.9721C8.16668 14.9387 8.25248 14.8915 8.32221 14.8333L14 10.7833L19.67 14.8333C19.8188 14.9244 20.0102 14.9719 20.2059 14.9665C20.4017 14.9611 20.5874 14.9031 20.7259 14.8042C20.8644 14.7053 20.9455 14.5726 20.9531 14.4328C20.9607 14.293 20.8941 14.1563 20.7667 14.05L15.0967 10Z" fill="white"/>
</svg>
